<svg xmlns="http://www.w3.org/2000/svg" width="24" height="24" viewBox="0 0 24 24"><path fill="currentColor" d="M16.36,14C16.44,13.34 16.5,12.68 16.5,12C16.5,11.32 16.44,10.66 16.36,10H19.74C19.9,10.64 20,11.31 20,12C20,12.69 19.9,13.36 19.74,14M14.59,19.56C15.19,18.45 15.65,17.25 15.97,16H18.92C17.96,17.65 16.43,18.89 14.59,19.56M14.34,14H9.66C9.56,13.34 9.5,12.68 9.5,12C9.5,11.32 9.56,10.66 9.66,10H14.34C14.44,10.66 14.5,11.32 14.5,12C14.5,12.68 14.44,13.34 14.34,14M12,19.96C11.17,18.76 10.5,17.43 10.09,16H13.91C13.5,17.43 12.83,18.76 12,19.96M8,12C8,12.68 8.06,13.34 8.14,14H4.26C4.1,13.36 4,12.69 4,12C4,11.31 4.1,10.64 4.26,10H8.14C8.06,10.66 8,11.32 8,12M12,4.03C12.83,5.23 13.5,6.57 13.91,8H10.09C10.5,6.57 11.17,5.23 12,4.03M5.08,8H8.03C8.35,6.75 8.81,5.55 9.41,4.44C7.57,5.11 6.04,6.35 5.08,8M18.92,8H15.97C15.65,6.75 15.19,5.55 14.59,4.44C16.43,5.11 17.96,6.35 18.92,8M12,2C6.47,2 2,6.47 2,12C2,17.53 6.47,22 12,22C17.53,22 22,17.53 22,12C22,6.47 17.53,2 12,2Z"/></svg>
